<svg xmlns="http://www.w3.org/2000/svg" width="48" height="48" viewBox="0 0 48 48" fill="none" role="img" aria-label="dbportal">
  <g transform="translate(0 0)">
    <path d="M4 15V7a3 3 0 0 1 3-3h8M44 15V7a3 3 0 0 0-3-3h-8M4 33v8a3 3 0 0 0 3 3h8M44 33v8a3 3 0 0 1-3 3h-8" stroke="#FFFFFF" stroke-width="3.5" stroke-linecap="square" fill="none"/>
    <rect x="13" y="14" width="22" height="5" rx="1" fill="#4E96FF"/>
    <rect x="13" y="21.5" width="22" height="5" rx="1" fill="#FFFFFF"/>
    <rect x="13" y="29" width="13" height="5" rx="1" fill="#FFFFFF"/>
  </g>
</svg>
